# xmcd
# Track frame offsets:
# 150
# 13156
# 30849
# 42175
# 60465
# 80995
# 102591
# 121029
# 134106
# 148248
# 161133
# 177952
#
# Disc length: 2549 seconds
# Revision: 0
# Processed by: cddbd v1.5.2PL0 Copyright (c) Steve Scherf et al.
# Submitted via: VisiTrax 2.10.2.252 - For more info visit www.synapsa.com
#
DISCID=a909f30c
DTITLE=Fjellis - See you in hell blind boy
DYEAR=1900
DGENRE=Blues
TTITLE0=Stones in my passway
TTITLE1=Walking blues
TTITLE2=Crossroad blues
TTITLE3=Steady rolling man
TTITLE4=Parchman farm
TTITLE5=Love in vain
TTITLE6=Come on in my kitchen
TTITLE7=When you got a good friend
TTITLE8=Louisiana Blues
TTITLE9=Stop breaking down
TTITLE10=Kindhearted woman
TTITLE11=Hellhound on my trail
EXTD=
EXTT0=
EXTT1=
EXTT2=
EXTT3=
EXTT4=
EXTT5=
EXTT6=
EXTT7=
EXTT8=
EXTT9=
EXTT10=
EXTT11=
PLAYORDER=
